<?xml version="1.0" encoding="utf-8" standalone="no"?>
<!DOCTYPE svg PUBLIC "-//W3C//DTD SVG 1.1//EN"
  "http://www.w3.org/Graphics/SVG/1.1/DTD/svg11.dtd">
<!-- Created with matplotlib (http://matplotlib.org/) -->
<svg height="252pt" version="1.1" viewBox="0 0 375 252" width="375pt" xmlns="http://www.w3.org/2000/svg" xmlns:xlink="http://www.w3.org/1999/xlink">
 <defs>
  <style type="text/css">
*{stroke-linecap:butt;stroke-linejoin:round;}
  </style>
 </defs>
 <g id="figure_1">
  <g id="patch_1">
   <path d="M 0 252.018125 
L 375.8 252.018125 
L 375.8 0 
L 0 0 
z
" style="fill:#ffffff;"/>
  </g>
  <g id="axes_1">
   <g id="patch_2">
    <path d="M 30.3 228.14 
L 365.1 228.14 
L 365.1 10.7 
L 30.3 10.7 
z
" style="fill:#ffffff;"/>
   </g>
   <g id="PathCollection_1">
    <defs>
     <path d="M 0 5 
C 1.326016 5 2.597899 4.473168 3.535534 3.535534 
C 4.473168 2.597899 5 1.326016 5 0 
C 5 -1.326016 4.473168 -2.597899 3.535534 -3.535534 
C 2.597899 -4.473168 1.326016 -5 0 -5 
C -1.326016 -5 -2.597899 -4.473168 -3.535534 -3.535534 
C -4.473168 -2.597899 -5 -1.326016 -5 0 
C -5 1.326016 -4.473168 2.597899 -3.535534 3.535534 
C -2.597899 4.473168 -1.326016 5 0 5 
z
" id="m3d80819a30" style="stroke:#ff0000;"/>
    </defs>
    <g clip-path="url(#pd8c675a3d9)">
     <use style="fill:#ff0000;stroke:#ff0000;" x="128.972727" xlink:href="#m3d80819a30" y="148.412"/>
    </g>
   </g>
   <g id="PathCollection_2">
    <g clip-path="url(#pd8c675a3d9)">
     <use style="fill:#ff0000;stroke:#ff0000;" x="197.7" xlink:href="#m3d80819a30" y="158.954545"/>
    </g>
   </g>
   <g id="PathCollection_3">
    <defs>
     <path d="M 0 3 
C 0.795609 3 1.55874 2.683901 2.12132 2.12132 
C 2.683901 1.55874 3 0.795609 3 0 
C 3 -0.795609 2.683901 -1.55874 2.12132 -2.12132 
C 1.55874 -2.683901 0.795609 -3 0 -3 
C -0.795609 -3 -1.55874 -2.683901 -2.12132 -2.12132 
C -2.683901 -1.55874 -3 -0.795609 -3 0 
C -3 0.795609 -2.683901 1.55874 -2.12132 2.12132 
C -1.55874 2.683901 -0.795609 3 0 3 
z
" id="m1c2ad7e9a5" style="stroke:#0000ff;"/>
    </defs>
    <g clip-path="url(#pd8c675a3d9)">
     <use style="fill:#0000ff;stroke:#0000ff;" x="84.790909" xlink:href="#m1c2ad7e9a5" y="148.412"/>
     <use style="fill:#0000ff;stroke:#0000ff;" x="106.881818" xlink:href="#m1c2ad7e9a5" y="148.412"/>
     <use style="fill:#0000ff;stroke:#0000ff;" x="128.972727" xlink:href="#m1c2ad7e9a5" y="148.412"/>
     <use style="fill:#0000ff;stroke:#0000ff;" x="151.063636" xlink:href="#m1c2ad7e9a5" y="148.412"/>
     <use style="fill:#0000ff;stroke:#0000ff;" x="173.154545" xlink:href="#m1c2ad7e9a5" y="148.412"/>
    </g>
   </g>
   <g id="PathCollection_4">
    <defs>
     <path d="M 0 3 
C 0.795609 3 1.55874 2.683901 2.12132 2.12132 
C 2.683901 1.55874 3 0.795609 3 0 
C 3 -0.795609 2.683901 -1.55874 2.12132 -2.12132 
C 1.55874 -2.683901 0.795609 -3 0 -3 
C -0.795609 -3 -1.55874 -2.683901 -2.12132 -2.12132 
C -2.683901 -1.55874 -3 -0.795609 -3 0 
C -3 0.795609 -2.683901 1.55874 -2.12132 2.12132 
C -1.55874 2.683901 -0.795609 3 0 3 
z
" id="m5aeabb4989" style="stroke:#008000;"/>
    </defs>
    <g clip-path="url(#pd8c675a3d9)">
     <use style="fill:#008000;stroke:#008000;" x="55.336364" xlink:href="#m5aeabb4989" y="158.954545"/>
     <use style="fill:#008000;stroke:#008000;" x="126.518182" xlink:href="#m5aeabb4989" y="158.954545"/>
     <use style="fill:#008000;stroke:#008000;" x="197.7" xlink:href="#m5aeabb4989" y="158.954545"/>
     <use style="fill:#008000;stroke:#008000;" x="268.881818" xlink:href="#m5aeabb4989" y="158.954545"/>
     <use style="fill:#008000;stroke:#008000;" x="340.063636" xlink:href="#m5aeabb4989" y="158.954545"/>
    </g>
   </g>
   <g id="PathCollection_5">
    <g clip-path="url(#pd8c675a3d9)">
     <use style="fill:#ff0000;stroke:#ff0000;" x="128.972727" xlink:href="#m3d80819a30" y="127.326909"/>
    </g>
   </g>
   <g id="PathCollection_6">
    <g clip-path="url(#pd8c675a3d9)">
     <use style="fill:#ff0000;stroke:#ff0000;" x="197.7" xlink:href="#m3d80819a30" y="137.869455"/>
    </g>
   </g>
   <g id="PathCollection_7">
    <g clip-path="url(#pd8c675a3d9)">
     <use style="fill:#0000ff;stroke:#0000ff;" x="84.790909" xlink:href="#m1c2ad7e9a5" y="127.326909"/>
     <use style="fill:#0000ff;stroke:#0000ff;" x="106.881818" xlink:href="#m1c2ad7e9a5" y="127.326909"/>
     <use style="fill:#0000ff;stroke:#0000ff;" x="128.972727" xlink:href="#m1c2ad7e9a5" y="127.326909"/>
     <use style="fill:#0000ff;stroke:#0000ff;" x="151.063636" xlink:href="#m1c2ad7e9a5" y="127.326909"/>
     <use style="fill:#0000ff;stroke:#0000ff;" x="173.154545" xlink:href="#m1c2ad7e9a5" y="127.326909"/>
    </g>
   </g>
   <g id="PathCollection_8">
    <g clip-path="url(#pd8c675a3d9)">
     <use style="fill:#008000;stroke:#008000;" x="55.336364" xlink:href="#m5aeabb4989" y="137.869455"/>
     <use style="fill:#008000;stroke:#008000;" x="126.518182" xlink:href="#m5aeabb4989" y="137.869455"/>
     <use style="fill:#008000;stroke:#008000;" x="197.7" xlink:href="#m5aeabb4989" y="137.869455"/>
     <use style="fill:#008000;stroke:#008000;" x="268.881818" xlink:href="#m5aeabb4989" y="137.869455"/>
     <use style="fill:#008000;stroke:#008000;" x="340.063636" xlink:href="#m5aeabb4989" y="137.869455"/>
    </g>
   </g>
   <g id="PathCollection_9">
    <g clip-path="url(#pd8c675a3d9)">
     <use style="fill:#ff0000;stroke:#ff0000;" x="128.972727" xlink:href="#m3d80819a30" y="106.241818"/>
    </g>
   </g>
   <g id="PathCollection_10">
    <g clip-path="url(#pd8c675a3d9)">
     <use style="fill:#ff0000;stroke:#ff0000;" x="197.7" xlink:href="#m3d80819a30" y="116.784364"/>
    </g>
   </g>
   <g id="PathCollection_11">
    <g clip-path="url(#pd8c675a3d9)">
     <use style="fill:#0000ff;stroke:#0000ff;" x="84.790909" xlink:href="#m1c2ad7e9a5" y="106.241818"/>
     <use style="fill:#0000ff;stroke:#0000ff;" x="106.881818" xlink:href="#m1c2ad7e9a5" y="106.241818"/>
     <use style="fill:#0000ff;stroke:#0000ff;" x="128.972727" xlink:href="#m1c2ad7e9a5" y="106.241818"/>
     <use style="fill:#0000ff;stroke:#0000ff;" x="151.063636" xlink:href="#m1c2ad7e9a5" y="106.241818"/>
     <use style="fill:#0000ff;stroke:#0000ff;" x="173.154545" xlink:href="#m1c2ad7e9a5" y="106.241818"/>
    </g>
   </g>
   <g id="PathCollection_12">
    <g clip-path="url(#pd8c675a3d9)">
     <use style="fill:#008000;stroke:#008000;" x="55.336364" xlink:href="#m5aeabb4989" y="116.784364"/>
     <use style="fill:#008000;stroke:#008000;" x="126.518182" xlink:href="#m5aeabb4989" y="116.784364"/>
     <use style="fill:#008000;stroke:#008000;" x="197.7" xlink:href="#m5aeabb4989" y="116.784364"/>
     <use style="fill:#008000;stroke:#008000;" x="268.881818" xlink:href="#m5aeabb4989" y="116.784364"/>
     <use style="fill:#008000;stroke:#008000;" x="340.063636" xlink:href="#m5aeabb4989" y="116.784364"/>
    </g>
   </g>
   <g id="PathCollection_13">
    <g clip-path="url(#pd8c675a3d9)">
     <use style="fill:#ff0000;stroke:#ff0000;" x="128.972727" xlink:href="#m3d80819a30" y="85.156727"/>
    </g>
   </g>
   <g id="PathCollection_14">
    <g clip-path="url(#pd8c675a3d9)">
     <use style="fill:#ff0000;stroke:#ff0000;" x="197.7" xlink:href="#m3d80819a30" y="95.699273"/>
    </g>
   </g>
   <g id="PathCollection_15">
    <g clip-path="url(#pd8c675a3d9)">
     <use style="fill:#0000ff;stroke:#0000ff;" x="84.790909" xlink:href="#m1c2ad7e9a5" y="85.156727"/>
     <use style="fill:#0000ff;stroke:#0000ff;" x="106.881818" xlink:href="#m1c2ad7e9a5" y="85.156727"/>
     <use style="fill:#0000ff;stroke:#0000ff;" x="128.972727" xlink:href="#m1c2ad7e9a5" y="85.156727"/>
     <use style="fill:#0000ff;stroke:#0000ff;" x="151.063636" xlink:href="#m1c2ad7e9a5" y="85.156727"/>
     <use style="fill:#0000ff;stroke:#0000ff;" x="173.154545" xlink:href="#m1c2ad7e9a5" y="85.156727"/>
    </g>
   </g>
   <g id="PathCollection_16">
    <g clip-path="url(#pd8c675a3d9)">
     <use style="fill:#008000;stroke:#008000;" x="55.336364" xlink:href="#m5aeabb4989" y="95.699273"/>
     <use style="fill:#008000;stroke:#008000;" x="126.518182" xlink:href="#m5aeabb4989" y="95.699273"/>
     <use style="fill:#008000;stroke:#008000;" x="197.7" xlink:href="#m5aeabb4989" y="95.699273"/>
     <use style="fill:#008000;stroke:#008000;" x="268.881818" xlink:href="#m5aeabb4989" y="95.699273"/>
     <use style="fill:#008000;stroke:#008000;" x="340.063636" xlink:href="#m5aeabb4989" y="95.699273"/>
    </g>
   </g>
   <g id="PathCollection_17">
    <g clip-path="url(#pd8c675a3d9)">
     <use style="fill:#ff0000;stroke:#ff0000;" x="128.972727" xlink:href="#m3d80819a30" y="64.071636"/>
    </g>
   </g>
   <g id="PathCollection_18">
    <g clip-path="url(#pd8c675a3d9)">
     <use style="fill:#ff0000;stroke:#ff0000;" x="197.7" xlink:href="#m3d80819a30" y="74.614182"/>
    </g>
   </g>
   <g id="PathCollection_19">
    <g clip-path="url(#pd8c675a3d9)">
     <use style="fill:#0000ff;stroke:#0000ff;" x="84.790909" xlink:href="#m1c2ad7e9a5" y="64.071636"/>
     <use style="fill:#0000ff;stroke:#0000ff;" x="106.881818" xlink:href="#m1c2ad7e9a5" y="64.071636"/>
     <use style="fill:#0000ff;stroke:#0000ff;" x="128.972727" xlink:href="#m1c2ad7e9a5" y="64.071636"/>
     <use style="fill:#0000ff;stroke:#0000ff;" x="151.063636" xlink:href="#m1c2ad7e9a5" y="64.071636"/>
     <use style="fill:#0000ff;stroke:#0000ff;" x="173.154545" xlink:href="#m1c2ad7e9a5" y="64.071636"/>
    </g>
   </g>
   <g id="PathCollection_20">
    <g clip-path="url(#pd8c675a3d9)">
     <use style="fill:#008000;stroke:#008000;" x="55.336364" xlink:href="#m5aeabb4989" y="74.614182"/>
     <use style="fill:#008000;stroke:#008000;" x="126.518182" xlink:href="#m5aeabb4989" y="74.614182"/>
     <use style="fill:#008000;stroke:#008000;" x="197.7" xlink:href="#m5aeabb4989" y="74.614182"/>
     <use style="fill:#008000;stroke:#008000;" x="268.881818" xlink:href="#m5aeabb4989" y="74.614182"/>
     <use style="fill:#008000;stroke:#008000;" x="340.063636" xlink:href="#m5aeabb4989" y="74.614182"/>
    </g>
   </g>
   <g id="PathCollection_21">
    <g clip-path="url(#pd8c675a3d9)">
     <use style="fill:#ff0000;stroke:#ff0000;" x="128.972727" xlink:href="#m3d80819a30" y="42.986545"/>
    </g>
   </g>
   <g id="PathCollection_22">
    <g clip-path="url(#pd8c675a3d9)">
     <use style="fill:#ff0000;stroke:#ff0000;" x="197.7" xlink:href="#m3d80819a30" y="53.529091"/>
    </g>
   </g>
   <g id="PathCollection_23">
    <g clip-path="url(#pd8c675a3d9)">
     <use style="fill:#0000ff;stroke:#0000ff;" x="84.790909" xlink:href="#m1c2ad7e9a5" y="42.986545"/>
     <use style="fill:#0000ff;stroke:#0000ff;" x="106.881818" xlink:href="#m1c2ad7e9a5" y="42.986545"/>
     <use style="fill:#0000ff;stroke:#0000ff;" x="128.972727" xlink:href="#m1c2ad7e9a5" y="42.986545"/>
     <use style="fill:#0000ff;stroke:#0000ff;" x="151.063636" xlink:href="#m1c2ad7e9a5" y="42.986545"/>
     <use style="fill:#0000ff;stroke:#0000ff;" x="173.154545" xlink:href="#m1c2ad7e9a5" y="42.986545"/>
    </g>
   </g>
   <g id="PathCollection_24">
    <g clip-path="url(#pd8c675a3d9)">
     <use style="fill:#008000;stroke:#008000;" x="55.336364" xlink:href="#m5aeabb4989" y="53.529091"/>
     <use style="fill:#008000;stroke:#008000;" x="126.518182" xlink:href="#m5aeabb4989" y="53.529091"/>
     <use style="fill:#008000;stroke:#008000;" x="197.7" xlink:href="#m5aeabb4989" y="53.529091"/>
     <use style="fill:#008000;stroke:#008000;" x="268.881818" xlink:href="#m5aeabb4989" y="53.529091"/>
     <use style="fill:#008000;stroke:#008000;" x="340.063636" xlink:href="#m5aeabb4989" y="53.529091"/>
    </g>
   </g>
   <g id="matplotlib.axis_1">
    <g id="xtick_1">
     <g id="line2d_1">
      <defs>
       <path d="M 0 0 
L 0 3.5 
" id="ma4b3d13286" style="stroke:#000000;stroke-width:0.8;"/>
      </defs>
      <g>
       <use style="stroke:#000000;stroke-width:0.8;" x="140.018182" xlink:href="#ma4b3d13286" y="228.14"/>
      </g>
     </g>
     <g id="text_1">
      <!-- $\theta^*$ -->
      <defs>
       <path d="M 45.515625 34.671875 
L 14.453125 34.671875 
Q 12.359375 20.0625 14.5 13.875 
Q 17.1875 6.25 24.46875 6.25 
Q 31.78125 6.25 37.359375 13.921875 
Q 42.234375 20.65625 45.515625 34.671875 
z
M 47.015625 42.96875 
Q 48.34375 56.84375 46.625 61.71875 
Q 43.953125 69.4375 36.765625 69.4375 
Q 29.296875 69.4375 23.828125 61.8125 
Q 19.53125 55.671875 16.15625 42.96875 
z
M 38.1875 76.765625 
Q 49.90625 76.765625 54.59375 66.40625 
Q 59.28125 56.109375 55.71875 37.84375 
Q 52.203125 19.625 43.453125 9.28125 
Q 34.765625 -1.125 23.046875 -1.125 
Q 11.28125 -1.125 6.640625 9.28125 
Q 2 19.625 5.515625 37.84375 
Q 9.078125 56.109375 17.71875 66.40625 
Q 26.421875 76.765625 38.1875 76.765625 
z
" id="DejaVuSans-Oblique-3b8"/>
       <path d="M 47.015625 60.890625 
L 29.5 51.421875 
L 47.015625 41.890625 
L 44.1875 37.109375 
L 27.78125 47.015625 
L 27.78125 28.609375 
L 22.21875 28.609375 
L 22.21875 47.015625 
L 5.8125 37.109375 
L 2.984375 41.890625 
L 20.515625 51.421875 
L 2.984375 60.890625 
L 5.8125 65.71875 
L 22.21875 55.8125 
L 22.21875 74.21875 
L 27.78125 74.21875 
L 27.78125 55.8125 
L 44.1875 65.71875 
z
" id="DejaVuSans-2a"/>
      </defs>
      <g transform="translate(133.318182 242.738437)scale(0.1 -0.1)">
       <use transform="translate(0 0.765625)" xlink:href="#DejaVuSans-Oblique-3b8"/>
       <use transform="translate(82.376419 39.046875)scale(0.7)" xlink:href="#DejaVuSans-2a"/>
      </g>
     </g>
    </g>
    <g id="xtick_2">
     <g id="line2d_2">
      <g>
       <use style="stroke:#000000;stroke-width:0.8;" x="182.972727" xlink:href="#ma4b3d13286" y="228.14"/>
      </g>
     </g>
     <g id="text_2">
      <!-- $\theta^{\mathrm{wrong}}$ -->
      <defs>
       <path d="M 4.203125 54.6875 
L 13.1875 54.6875 
L 24.421875 12.015625 
L 35.59375 54.6875 
L 46.1875 54.6875 
L 57.421875 12.015625 
L 68.609375 54.6875 
L 77.59375 54.6875 
L 63.28125 0 
L 52.6875 0 
L 40.921875 44.828125 
L 29.109375 0 
L 18.5 0 
z
" id="DejaVuSans-77"/>
       <path d="M 41.109375 46.296875 
Q 39.59375 47.171875 37.8125 47.578125 
Q 36.03125 48 33.890625 48 
Q 26.265625 48 22.1875 43.046875 
Q 18.109375 38.09375 18.109375 28.8125 
L 18.109375 0 
L 9.078125 0 
L 9.078125 54.6875 
L 18.109375 54.6875 
L 18.109375 46.1875 
Q 20.953125 51.171875 25.484375 53.578125 
Q 30.03125 56 36.53125 56 
Q 37.453125 56 38.578125 55.875 
Q 39.703125 55.765625 41.0625 55.515625 
z
" id="DejaVuSans-72"/>
       <path d="M 30.609375 48.390625 
Q 23.390625 48.390625 19.1875 42.75 
Q 14.984375 37.109375 14.984375 27.296875 
Q 14.984375 17.484375 19.15625 11.84375 
Q 23.34375 6.203125 30.609375 6.203125 
Q 37.796875 6.203125 41.984375 11.859375 
Q 46.1875 17.53125 46.1875 27.296875 
Q 46.1875 37.015625 41.984375 42.703125 
Q 37.796875 48.390625 30.609375 48.390625 
z
M 30.609375 56 
Q 42.328125 56 49.015625 48.375 
Q 55.71875 40.765625 55.71875 27.296875 
Q 55.71875 13.875 49.015625 6.21875 
Q 42.328125 -1.421875 30.609375 -1.421875 
Q 18.84375 -1.421875 12.171875 6.21875 
Q 5.515625 13.875 5.515625 27.296875 
Q 5.515625 40.765625 12.171875 48.375 
Q 18.84375 56 30.609375 56 
z
" id="DejaVuSans-6f"/>
       <path d="M 54.890625 33.015625 
L 54.890625 0 
L 45.90625 0 
L 45.90625 32.71875 
Q 45.90625 40.484375 42.875 44.328125 
Q 39.84375 48.1875 33.796875 48.1875 
Q 26.515625 48.1875 22.3125 43.546875 
Q 18.109375 38.921875 18.109375 30.90625 
L 18.109375 0 
L 9.078125 0 
L 9.078125 54.6875 
L 18.109375 54.6875 
L 18.109375 46.1875 
Q 21.34375 51.125 25.703125 53.5625 
Q 30.078125 56 35.796875 56 
Q 45.21875 56 50.046875 50.171875 
Q 54.890625 44.34375 54.890625 33.015625 
z
" id="DejaVuSans-6e"/>
       <path d="M 45.40625 27.984375 
Q 45.40625 37.75 41.375 43.109375 
Q 37.359375 48.484375 30.078125 48.484375 
Q 22.859375 48.484375 18.828125 43.109375 
Q 14.796875 37.75 14.796875 27.984375 
Q 14.796875 18.265625 18.828125 12.890625 
Q 22.859375 7.515625 30.078125 7.515625 
Q 37.359375 7.515625 41.375 12.890625 
Q 45.40625 18.265625 45.40625 27.984375 
z
M 54.390625 6.78125 
Q 54.390625 -7.171875 48.1875 -13.984375 
Q 42 -20.796875 29.203125 -20.796875 
Q 24.46875 -20.796875 20.265625 -20.09375 
Q 16.0625 -19.390625 12.109375 -17.921875 
L 12.109375 -9.1875 
Q 16.0625 -11.328125 19.921875 -12.34375 
Q 23.78125 -13.375 27.78125 -13.375 
Q 36.625 -13.375 41.015625 -8.765625 
Q 45.40625 -4.15625 45.40625 5.171875 
L 45.40625 9.625 
Q 42.625 4.78125 38.28125 2.390625 
Q 33.9375 0 27.875 0 
Q 17.828125 0 11.671875 7.65625 
Q 5.515625 15.328125 5.515625 27.984375 
Q 5.515625 40.671875 11.671875 48.328125 
Q 17.828125 56 27.875 56 
Q 33.9375 56 38.28125 53.609375 
Q 42.625 51.21875 45.40625 46.390625 
L 45.40625 54.6875 
L 54.390625 54.6875 
z
" id="DejaVuSans-67"/>
      </defs>
      <g transform="translate(168.472727 242.738437)scale(0.1 -0.1)">
       <use transform="translate(0 0.51875)" xlink:href="#DejaVuSans-Oblique-3b8"/>
       <use transform="translate(68.738724 38.8)scale(0.7)" xlink:href="#DejaVuSans-77"/>
       <use transform="translate(125.989701 38.8)scale(0.7)" xlink:href="#DejaVuSans-72"/>
       <use transform="translate(154.768997 38.8)scale(0.7)" xlink:href="#DejaVuSans-6f"/>
       <use transform="translate(197.596146 38.8)scale(0.7)" xlink:href="#DejaVuSans-6e"/>
       <use transform="translate(241.96138 38.8)scale(0.7)" xlink:href="#DejaVuSans-67"/>
      </g>
     </g>
    </g>
   </g>
   <g id="matplotlib.axis_2">
    <g id="ytick_1">
     <g id="line2d_3">
      <defs>
       <path d="M 0 0 
L -3.5 0 
" id="mc7f8b90eca" style="stroke:#000000;stroke-width:0.8;"/>
      </defs>
      <g>
       <use style="stroke:#000000;stroke-width:0.8;" x="30.3" xlink:href="#mc7f8b90eca" y="158.954545"/>
      </g>
     </g>
     <g id="text_3">
      <!-- $B_{1}$ -->
      <defs>
       <path d="M 16.890625 72.90625 
L 42.09375 72.90625 
Q 52.34375 72.90625 57.421875 69.09375 
Q 62.5 65.28125 62.5 57.625 
Q 62.5 50.59375 58.125 45.484375 
Q 53.765625 40.375 46.6875 39.3125 
Q 52.734375 37.9375 55.765625 34.078125 
Q 58.796875 30.21875 58.796875 23.78125 
Q 58.796875 12.796875 50.65625 6.390625 
Q 42.53125 0 28.421875 0 
L 2.6875 0 
z
M 19.28125 34.8125 
L 14.109375 8.109375 
L 29.984375 8.109375 
Q 38.921875 8.109375 43.75 12.203125 
Q 48.578125 16.3125 48.578125 23.78125 
Q 48.578125 29.546875 45.375 32.171875 
Q 42.1875 34.8125 35.109375 34.8125 
z
M 25.09375 64.796875 
L 20.796875 42.828125 
L 35.5 42.828125 
Q 43.359375 42.828125 47.78125 46.234375 
Q 52.203125 49.65625 52.203125 55.71875 
Q 52.203125 60.453125 49.21875 62.625 
Q 46.234375 64.796875 39.703125 64.796875 
z
" id="DejaVuSans-Oblique-42"/>
       <path d="M 12.40625 8.296875 
L 28.515625 8.296875 
L 28.515625 63.921875 
L 10.984375 60.40625 
L 10.984375 69.390625 
L 28.421875 72.90625 
L 38.28125 72.90625 
L 38.28125 8.296875 
L 54.390625 8.296875 
L 54.390625 0 
L 12.40625 0 
z
" id="DejaVuSans-31"/>
      </defs>
      <g transform="translate(11.7 162.753764)scale(0.1 -0.1)">
       <use transform="translate(0 0.09375)" xlink:href="#DejaVuSans-Oblique-42"/>
       <use transform="translate(68.603516 -16.3125)scale(0.7)" xlink:href="#DejaVuSans-31"/>
      </g>
     </g>
    </g>
    <g id="ytick_2">
     <g id="line2d_4">
      <g>
       <use style="stroke:#000000;stroke-width:0.8;" x="30.3" xlink:href="#mc7f8b90eca" y="148.412"/>
      </g>
     </g>
     <g id="text_4">
      <!-- $B_{2}$ -->
      <defs>
       <path d="M 19.1875 8.296875 
L 53.609375 8.296875 
L 53.609375 0 
L 7.328125 0 
L 7.328125 8.296875 
Q 12.9375 14.109375 22.625 23.890625 
Q 32.328125 33.6875 34.8125 36.53125 
Q 39.546875 41.84375 41.421875 45.53125 
Q 43.3125 49.21875 43.3125 52.78125 
Q 43.3125 58.59375 39.234375 62.25 
Q 35.15625 65.921875 28.609375 65.921875 
Q 23.96875 65.921875 18.8125 64.3125 
Q 13.671875 62.703125 7.8125 59.421875 
L 7.8125 69.390625 
Q 13.765625 71.78125 18.9375 73 
Q 24.125 74.21875 28.421875 74.21875 
Q 39.75 74.21875 46.484375 68.546875 
Q 53.21875 62.890625 53.21875 53.421875 
Q 53.21875 48.921875 51.53125 44.890625 
Q 49.859375 40.875 45.40625 35.40625 
Q 44.1875 33.984375 37.640625 27.21875 
Q 31.109375 20.453125 19.1875 8.296875 
z
" id="DejaVuSans-32"/>
      </defs>
      <g transform="translate(11.7 152.211219)scale(0.1 -0.1)">
       <use transform="translate(0 0.09375)" xlink:href="#DejaVuSans-Oblique-42"/>
       <use transform="translate(68.603516 -16.3125)scale(0.7)" xlink:href="#DejaVuSans-32"/>
      </g>
     </g>
    </g>
    <g id="ytick_3">
     <g id="line2d_5">
      <g>
       <use style="stroke:#000000;stroke-width:0.8;" x="30.3" xlink:href="#mc7f8b90eca" y="137.869455"/>
      </g>
     </g>
     <g id="text_5">
      <!-- $B_{3}$ -->
      <defs>
       <path d="M 40.578125 39.3125 
Q 47.65625 37.796875 51.625 33 
Q 55.609375 28.21875 55.609375 21.1875 
Q 55.609375 10.40625 48.1875 4.484375 
Q 40.765625 -1.421875 27.09375 -1.421875 
Q 22.515625 -1.421875 17.65625 -0.515625 
Q 12.796875 0.390625 7.625 2.203125 
L 7.625 11.71875 
Q 11.71875 9.328125 16.59375 8.109375 
Q 21.484375 6.890625 26.8125 6.890625 
Q 36.078125 6.890625 40.9375 10.546875 
Q 45.796875 14.203125 45.796875 21.1875 
Q 45.796875 27.640625 41.28125 31.265625 
Q 36.765625 34.90625 28.71875 34.90625 
L 20.21875 34.90625 
L 20.21875 43.015625 
L 29.109375 43.015625 
Q 36.375 43.015625 40.234375 45.921875 
Q 44.09375 48.828125 44.09375 54.296875 
Q 44.09375 59.90625 40.109375 62.90625 
Q 36.140625 65.921875 28.71875 65.921875 
Q 24.65625 65.921875 20.015625 65.03125 
Q 15.375 64.15625 9.8125 62.3125 
L 9.8125 71.09375 
Q 15.4375 72.65625 20.34375 73.4375 
Q 25.25 74.21875 29.59375 74.21875 
Q 40.828125 74.21875 47.359375 69.109375 
Q 53.90625 64.015625 53.90625 55.328125 
Q 53.90625 49.265625 50.4375 45.09375 
Q 46.96875 40.921875 40.578125 39.3125 
z
" id="DejaVuSans-33"/>
      </defs>
      <g transform="translate(11.7 141.668673)scale(0.1 -0.1)">
       <use transform="translate(0 0.09375)" xlink:href="#DejaVuSans-Oblique-42"/>
       <use transform="translate(68.603516 -16.3125)scale(0.7)" xlink:href="#DejaVuSans-33"/>
      </g>
     </g>
    </g>
    <g id="ytick_4">
     <g id="line2d_6">
      <g>
       <use style="stroke:#000000;stroke-width:0.8;" x="30.3" xlink:href="#mc7f8b90eca" y="127.326909"/>
      </g>
     </g>
     <g id="text_6">
      <!-- $B_{4}$ -->
      <defs>
       <path d="M 37.796875 64.3125 
L 12.890625 25.390625 
L 37.796875 25.390625 
z
M 35.203125 72.90625 
L 47.609375 72.90625 
L 47.609375 25.390625 
L 58.015625 25.390625 
L 58.015625 17.1875 
L 47.609375 17.1875 
L 47.609375 0 
L 37.796875 0 
L 37.796875 17.1875 
L 4.890625 17.1875 
L 4.890625 26.703125 
z
" id="DejaVuSans-34"/>
      </defs>
      <g transform="translate(11.7 131.126128)scale(0.1 -0.1)">
       <use transform="translate(0 0.09375)" xlink:href="#DejaVuSans-Oblique-42"/>
       <use transform="translate(68.603516 -16.3125)scale(0.7)" xlink:href="#DejaVuSans-34"/>
      </g>
     </g>
    </g>
    <g id="ytick_5">
     <g id="line2d_7">
      <g>
       <use style="stroke:#000000;stroke-width:0.8;" x="30.3" xlink:href="#mc7f8b90eca" y="116.784364"/>
      </g>
     </g>
     <g id="text_7">
      <!-- $B_{5}$ -->
      <defs>
       <path d="M 10.796875 72.90625 
L 49.515625 72.90625 
L 49.515625 64.59375 
L 19.828125 64.59375 
L 19.828125 46.734375 
Q 21.96875 47.46875 24.109375 47.828125 
Q 26.265625 48.1875 28.421875 48.1875 
Q 40.625 48.1875 47.75 41.5 
Q 54.890625 34.8125 54.890625 23.390625 
Q 54.890625 11.625 47.5625 5.09375 
Q 40.234375 -1.421875 26.90625 -1.421875 
Q 22.3125 -1.421875 17.546875 -0.640625 
Q 12.796875 0.140625 7.71875 1.703125 
L 7.71875 11.625 
Q 12.109375 9.234375 16.796875 8.0625 
Q 21.484375 6.890625 26.703125 6.890625 
Q 35.15625 6.890625 40.078125 11.328125 
Q 45.015625 15.765625 45.015625 23.390625 
Q 45.015625 31 40.078125 35.4375 
Q 35.15625 39.890625 26.703125 39.890625 
Q 22.75 39.890625 18.8125 39.015625 
Q 14.890625 38.140625 10.796875 36.28125 
z
" id="DejaVuSans-35"/>
      </defs>
      <g transform="translate(11.7 120.583582)scale(0.1 -0.1)">
       <use transform="translate(0 0.09375)" xlink:href="#DejaVuSans-Oblique-42"/>
       <use transform="translate(68.603516 -16.3125)scale(0.7)" xlink:href="#DejaVuSans-35"/>
      </g>
     </g>
    </g>
    <g id="ytick_6">
     <g id="line2d_8">
      <g>
       <use style="stroke:#000000;stroke-width:0.8;" x="30.3" xlink:href="#mc7f8b90eca" y="106.241818"/>
      </g>
     </g>
     <g id="text_8">
      <!-- $B_{6}$ -->
      <defs>
       <path d="M 33.015625 40.375 
Q 26.375 40.375 22.484375 35.828125 
Q 18.609375 31.296875 18.609375 23.390625 
Q 18.609375 15.53125 22.484375 10.953125 
Q 26.375 6.390625 33.015625 6.390625 
Q 39.65625 6.390625 43.53125 10.953125 
Q 47.40625 15.53125 47.40625 23.390625 
Q 47.40625 31.296875 43.53125 35.828125 
Q 39.65625 40.375 33.015625 40.375 
z
M 52.59375 71.296875 
L 52.59375 62.3125 
Q 48.875 64.0625 45.09375 64.984375 
Q 41.3125 65.921875 37.59375 65.921875 
Q 27.828125 65.921875 22.671875 59.328125 
Q 17.53125 52.734375 16.796875 39.40625 
Q 19.671875 43.65625 24.015625 45.921875 
Q 28.375 48.1875 33.59375 48.1875 
Q 44.578125 48.1875 50.953125 41.515625 
Q 57.328125 34.859375 57.328125 23.390625 
Q 57.328125 12.15625 50.6875 5.359375 
Q 44.046875 -1.421875 33.015625 -1.421875 
Q 20.359375 -1.421875 13.671875 8.265625 
Q 6.984375 17.96875 6.984375 36.375 
Q 6.984375 53.65625 15.1875 63.9375 
Q 23.390625 74.21875 37.203125 74.21875 
Q 40.921875 74.21875 44.703125 73.484375 
Q 48.484375 72.75 52.59375 71.296875 
z
" id="DejaVuSans-36"/>
      </defs>
      <g transform="translate(11.7 110.041037)scale(0.1 -0.1)">
       <use transform="translate(0 0.09375)" xlink:href="#DejaVuSans-Oblique-42"/>
       <use transform="translate(68.603516 -16.3125)scale(0.7)" xlink:href="#DejaVuSans-36"/>
      </g>
     </g>
    </g>
    <g id="ytick_7">
     <g id="line2d_9">
      <g>
       <use style="stroke:#000000;stroke-width:0.8;" x="30.3" xlink:href="#mc7f8b90eca" y="95.699273"/>
      </g>
     </g>
     <g id="text_9">
      <!-- $B_{7}$ -->
      <defs>
       <path d="M 8.203125 72.90625 
L 55.078125 72.90625 
L 55.078125 68.703125 
L 28.609375 0 
L 18.3125 0 
L 43.21875 64.59375 
L 8.203125 64.59375 
z
" id="DejaVuSans-37"/>
      </defs>
      <g transform="translate(11.7 99.498491)scale(0.1 -0.1)">
       <use transform="translate(0 0.09375)" xlink:href="#DejaVuSans-Oblique-42"/>
       <use transform="translate(68.603516 -16.3125)scale(0.7)" xlink:href="#DejaVuSans-37"/>
      </g>
     </g>
    </g>
    <g id="ytick_8">
     <g id="line2d_10">
      <g>
       <use style="stroke:#000000;stroke-width:0.8;" x="30.3" xlink:href="#mc7f8b90eca" y="85.156727"/>
      </g>
     </g>
     <g id="text_10">
      <!-- $B_{8}$ -->
      <defs>
       <path d="M 31.78125 34.625 
Q 24.75 34.625 20.71875 30.859375 
Q 16.703125 27.09375 16.703125 20.515625 
Q 16.703125 13.921875 20.71875 10.15625 
Q 24.75 6.390625 31.78125 6.390625 
Q 38.8125 6.390625 42.859375 10.171875 
Q 46.921875 13.96875 46.921875 20.515625 
Q 46.921875 27.09375 42.890625 30.859375 
Q 38.875 34.625 31.78125 34.625 
z
M 21.921875 38.8125 
Q 15.578125 40.375 12.03125 44.71875 
Q 8.5 49.078125 8.5 55.328125 
Q 8.5 64.0625 14.71875 69.140625 
Q 20.953125 74.21875 31.78125 74.21875 
Q 42.671875 74.21875 48.875 69.140625 
Q 55.078125 64.0625 55.078125 55.328125 
Q 55.078125 49.078125 51.53125 44.71875 
Q 48 40.375 41.703125 38.8125 
Q 48.828125 37.15625 52.796875 32.3125 
Q 56.78125 27.484375 56.78125 20.515625 
Q 56.78125 9.90625 50.3125 4.234375 
Q 43.84375 -1.421875 31.78125 -1.421875 
Q 19.734375 -1.421875 13.25 4.234375 
Q 6.78125 9.90625 6.78125 20.515625 
Q 6.78125 27.484375 10.78125 32.3125 
Q 14.796875 37.15625 21.921875 38.8125 
z
M 18.3125 54.390625 
Q 18.3125 48.734375 21.84375 45.5625 
Q 25.390625 42.390625 31.78125 42.390625 
Q 38.140625 42.390625 41.71875 45.5625 
Q 45.3125 48.734375 45.3125 54.390625 
Q 45.3125 60.0625 41.71875 63.234375 
Q 38.140625 66.40625 31.78125 66.40625 
Q 25.390625 66.40625 21.84375 63.234375 
Q 18.3125 60.0625 18.3125 54.390625 
z
" id="DejaVuSans-38"/>
      </defs>
      <g transform="translate(11.7 88.955946)scale(0.1 -0.1)">
       <use transform="translate(0 0.09375)" xlink:href="#DejaVuSans-Oblique-42"/>
       <use transform="translate(68.603516 -16.3125)scale(0.7)" xlink:href="#DejaVuSans-38"/>
      </g>
     </g>
    </g>
    <g id="ytick_9">
     <g id="line2d_11">
      <g>
       <use style="stroke:#000000;stroke-width:0.8;" x="30.3" xlink:href="#mc7f8b90eca" y="74.614182"/>
      </g>
     </g>
     <g id="text_11">
      <!-- $B_{9}$ -->
      <defs>
       <path d="M 10.984375 1.515625 
L 10.984375 10.5 
Q 14.703125 8.734375 18.5 7.8125 
Q 22.3125 6.890625 25.984375 6.890625 
Q 35.75 6.890625 40.890625 13.453125 
Q 46.046875 20.015625 46.78125 33.40625 
Q 43.953125 29.203125 39.59375 26.953125 
Q 35.25 24.703125 29.984375 24.703125 
Q 19.046875 24.703125 12.671875 31.3125 
Q 6.296875 37.9375 6.296875 49.421875 
Q 6.296875 60.640625 12.9375 67.421875 
Q 19.578125 74.21875 30.609375 74.21875 
Q 43.265625 74.21875 49.921875 64.515625 
Q 56.59375 54.828125 56.59375 36.375 
Q 56.59375 19.140625 48.40625 8.859375 
Q 40.234375 -1.421875 26.421875 -1.421875 
Q 22.703125 -1.421875 18.890625 -0.6875 
Q 15.09375 0.046875 10.984375 1.515625 
z
M 30.609375 32.421875 
Q 37.25 32.421875 41.125 36.953125 
Q 45.015625 41.5 45.015625 49.421875 
Q 45.015625 57.28125 41.125 61.84375 
Q 37.25 66.40625 30.609375 66.40625 
Q 23.96875 66.40625 20.09375 61.84375 
Q 16.21875 57.28125 16.21875 49.421875 
Q 16.21875 41.5 20.09375 36.953125 
Q 23.96875 32.421875 30.609375 32.421875 
z
" id="DejaVuSans-39"/>
      </defs>
      <g transform="translate(11.7 78.413401)scale(0.1 -0.1)">
       <use transform="translate(0 0.09375)" xlink:href="#DejaVuSans-Oblique-42"/>
       <use transform="translate(68.603516 -16.3125)scale(0.7)" xlink:href="#DejaVuSans-39"/>
      </g>
     </g>
    </g>
    <g id="ytick_10">
     <g id="line2d_12">
      <g>
       <use style="stroke:#000000;stroke-width:0.8;" x="30.3" xlink:href="#mc7f8b90eca" y="64.071636"/>
      </g>
     </g>
     <g id="text_12">
      <!-- $B_{10}$ -->
      <defs>
       <path d="M 31.78125 66.40625 
Q 24.171875 66.40625 20.328125 58.90625 
Q 16.5 51.421875 16.5 36.375 
Q 16.5 21.390625 20.328125 13.890625 
Q 24.171875 6.390625 31.78125 6.390625 
Q 39.453125 6.390625 43.28125 13.890625 
Q 47.125 21.390625 47.125 36.375 
Q 47.125 51.421875 43.28125 58.90625 
Q 39.453125 66.40625 31.78125 66.40625 
z
M 31.78125 74.21875 
Q 44.046875 74.21875 50.515625 64.515625 
Q 56.984375 54.828125 56.984375 36.375 
Q 56.984375 17.96875 50.515625 8.265625 
Q 44.046875 -1.421875 31.78125 -1.421875 
Q 19.53125 -1.421875 13.0625 8.265625 
Q 6.59375 17.96875 6.59375 36.375 
Q 6.59375 54.828125 13.0625 64.515625 
Q 19.53125 74.21875 31.78125 74.21875 
z
" id="DejaVuSans-30"/>
      </defs>
      <g transform="translate(7.2 67.870855)scale(0.1 -0.1)">
       <use transform="translate(0 0.09375)" xlink:href="#DejaVuSans-Oblique-42"/>
       <use transform="translate(68.603516 -16.3125)scale(0.7)" xlink:href="#DejaVuSans-31"/>
       <use transform="translate(113.139648 -16.3125)scale(0.7)" xlink:href="#DejaVuSans-30"/>
      </g>
     </g>
    </g>
    <g id="ytick_11">
     <g id="line2d_13">
      <g>
       <use style="stroke:#000000;stroke-width:0.8;" x="30.3" xlink:href="#mc7f8b90eca" y="53.529091"/>
      </g>
     </g>
     <g id="text_13">
      <!-- $B_{11}$ -->
      <g transform="translate(7.2 57.32831)scale(0.1 -0.1)">
       <use transform="translate(0 0.09375)" xlink:href="#DejaVuSans-Oblique-42"/>
       <use transform="translate(68.603516 -16.3125)scale(0.7)" xlink:href="#DejaVuSans-31"/>
       <use transform="translate(113.139648 -16.3125)scale(0.7)" xlink:href="#DejaVuSans-31"/>
      </g>
     </g>
    </g>
    <g id="ytick_12">
     <g id="line2d_14">
      <g>
       <use style="stroke:#000000;stroke-width:0.8;" x="30.3" xlink:href="#mc7f8b90eca" y="42.986545"/>
      </g>
     </g>
     <g id="text_14">
      <!-- $B_{12}$ -->
      <g transform="translate(7.2 46.785764)scale(0.1 -0.1)">
       <use transform="translate(0 0.09375)" xlink:href="#DejaVuSans-Oblique-42"/>
       <use transform="translate(68.603516 -16.3125)scale(0.7)" xlink:href="#DejaVuSans-31"/>
       <use transform="translate(113.139648 -16.3125)scale(0.7)" xlink:href="#DejaVuSans-32"/>
      </g>
     </g>
    </g>
    <g id="ytick_13">
     <g id="line2d_15">
      <g>
       <use style="stroke:#000000;stroke-width:0.8;" x="30.3" xlink:href="#mc7f8b90eca" y="32.444"/>
      </g>
     </g>
     <g id="text_15">
      <!-- $\cdots$ -->
      <defs>
       <path d="M 11.5625 36.921875 
L 21.875 36.921875 
L 21.875 24.515625 
L 11.5625 24.515625 
z
M 44.8125 36.921875 
L 55.125 36.921875 
L 55.125 24.515625 
L 44.8125 24.515625 
z
M 78.0625 36.921875 
L 88.375 36.921875 
L 88.375 24.515625 
L 78.0625 24.515625 
z
" id="DejaVuSans-22ef"/>
      </defs>
      <g transform="translate(13.3 36.243219)scale(0.1 -0.1)">
       <use transform="translate(0 0.078125)" xlink:href="#DejaVuSans-22ef"/>
      </g>
     </g>
    </g>
   </g>
   <g id="LineCollection_1">
    <path clip-path="url(#pd8c675a3d9)" d="M 45.518182 185.310909 
L 349.881818 185.310909 
" style="fill:none;stroke:#000000;stroke-width:1.5;"/>
   </g>
   <g id="LineCollection_2">
    <path clip-path="url(#pd8c675a3d9)" d="M 140.018182 218.256364 
L 140.018182 20.583636 
" style="fill:none;stroke:#ff0000;stroke-dasharray:1.5,2.475;stroke-dashoffset:0;stroke-width:1.5;"/>
    <path clip-path="url(#pd8c675a3d9)" d="M 182.972727 218.256364 
L 182.972727 20.583636 
" style="fill:none;stroke:#000000;stroke-dasharray:1.5,2.475;stroke-dashoffset:0;stroke-width:1.5;"/>
   </g>
   <g id="patch_3">
    <path d="M 30.3 228.14 
L 30.3 10.7 
" style="fill:none;stroke:#000000;stroke-linecap:square;stroke-linejoin:miter;stroke-width:0.8;"/>
   </g>
   <g id="patch_4">
    <path d="M 365.1 228.14 
L 365.1 10.7 
" style="fill:none;stroke:#000000;stroke-linecap:square;stroke-linejoin:miter;stroke-width:0.8;"/>
   </g>
   <g id="patch_5">
    <path d="M 30.3 228.14 
L 365.1 228.14 
" style="fill:none;stroke:#000000;stroke-linecap:square;stroke-linejoin:miter;stroke-width:0.8;"/>
   </g>
   <g id="patch_6">
    <path d="M 30.3 10.7 
L 365.1 10.7 
" style="fill:none;stroke:#000000;stroke-linecap:square;stroke-linejoin:miter;stroke-width:0.8;"/>
   </g>
  </g>
 </g>
 <defs>
  <clipPath id="pd8c675a3d9">
   <rect height="217.44" width="334.8" x="30.3" y="10.7"/>
  </clipPath>
 </defs>
</svg>
