<?xml version="1.0" encoding="utf-8" standalone="no"?>
<!DOCTYPE svg PUBLIC "-//W3C//DTD SVG 1.1//EN"
  "http://www.w3.org/Graphics/SVG/1.1/DTD/svg11.dtd">
<!-- Created with matplotlib (http://matplotlib.org/) -->
<svg height="252pt" version="1.1" viewBox="0 0 375 252" width="375pt" xmlns="http://www.w3.org/2000/svg" xmlns:xlink="http://www.w3.org/1999/xlink">
 <defs>
  <style type="text/css">
*{stroke-linecap:butt;stroke-linejoin:round;}
  </style>
 </defs>
 <g id="figure_1">
  <g id="patch_1">
   <path d="M 0 252.018125 
L 375.603125 252.018125 
L 375.603125 0 
L 0 0 
z
" style="fill:#ffffff;"/>
  </g>
  <g id="axes_1">
   <g id="patch_2">
    <path d="M 30.103125 228.14 
L 364.903125 228.14 
L 364.903125 10.7 
L 30.103125 10.7 
z
" style="fill:#ffffff;"/>
   </g>
   <g id="matplotlib.axis_1">
    <g id="xtick_1">
     <g id="line2d_1">
      <defs>
       <path d="M 0 0 
L 0 3.5 
" id="m6f8ee9c264" style="stroke:#000000;stroke-width:0.8;"/>
      </defs>
      <g>
       <use style="stroke:#000000;stroke-width:0.8;" x="59.156018" xlink:href="#m6f8ee9c264" y="228.14"/>
      </g>
     </g>
     <g id="text_1">
      <!-- −10 -->
      <defs>
       <path d="M 10.59375 35.5 
L 73.1875 35.5 
L 73.1875 27.203125 
L 10.59375 27.203125 
z
" id="DejaVuSans-2212"/>
       <path d="M 12.40625 8.296875 
L 28.515625 8.296875 
L 28.515625 63.921875 
L 10.984375 60.40625 
L 10.984375 69.390625 
L 28.421875 72.90625 
L 38.28125 72.90625 
L 38.28125 8.296875 
L 54.390625 8.296875 
L 54.390625 0 
L 12.40625 0 
z
" id="DejaVuSans-31"/>
       <path d="M 31.78125 66.40625 
Q 24.171875 66.40625 20.328125 58.90625 
Q 16.5 51.421875 16.5 36.375 
Q 16.5 21.390625 20.328125 13.890625 
Q 24.171875 6.390625 31.78125 6.390625 
Q 39.453125 6.390625 43.28125 13.890625 
Q 47.125 21.390625 47.125 36.375 
Q 47.125 51.421875 43.28125 58.90625 
Q 39.453125 66.40625 31.78125 66.40625 
z
M 31.78125 74.21875 
Q 44.046875 74.21875 50.515625 64.515625 
Q 56.984375 54.828125 56.984375 36.375 
Q 56.984375 17.96875 50.515625 8.265625 
Q 44.046875 -1.421875 31.78125 -1.421875 
Q 19.53125 -1.421875 13.0625 8.265625 
Q 6.59375 17.96875 6.59375 36.375 
Q 6.59375 54.828125 13.0625 64.515625 
Q 19.53125 74.21875 31.78125 74.21875 
z
" id="DejaVuSans-30"/>
      </defs>
      <g transform="translate(48.603674 242.738437)scale(0.1 -0.1)">
       <use xlink:href="#DejaVuSans-2212"/>
       <use x="83.789062" xlink:href="#DejaVuSans-31"/>
       <use x="147.412109" xlink:href="#DejaVuSans-30"/>
      </g>
     </g>
    </g>
    <g id="xtick_2">
     <g id="line2d_2">
      <g>
       <use style="stroke:#000000;stroke-width:0.8;" x="128.329571" xlink:href="#m6f8ee9c264" y="228.14"/>
      </g>
     </g>
     <g id="text_2">
      <!-- −5 -->
      <defs>
       <path d="M 10.796875 72.90625 
L 49.515625 72.90625 
L 49.515625 64.59375 
L 19.828125 64.59375 
L 19.828125 46.734375 
Q 21.96875 47.46875 24.109375 47.828125 
Q 26.265625 48.1875 28.421875 48.1875 
Q 40.625 48.1875 47.75 41.5 
Q 54.890625 34.8125 54.890625 23.390625 
Q 54.890625 11.625 47.5625 5.09375 
Q 40.234375 -1.421875 26.90625 -1.421875 
Q 22.3125 -1.421875 17.546875 -0.640625 
Q 12.796875 0.140625 7.71875 1.703125 
L 7.71875 11.625 
Q 12.109375 9.234375 16.796875 8.0625 
Q 21.484375 6.890625 26.703125 6.890625 
Q 35.15625 6.890625 40.078125 11.328125 
Q 45.015625 15.765625 45.015625 23.390625 
Q 45.015625 31 40.078125 35.4375 
Q 35.15625 39.890625 26.703125 39.890625 
Q 22.75 39.890625 18.8125 39.015625 
Q 14.890625 38.140625 10.796875 36.28125 
z
" id="DejaVuSans-35"/>
      </defs>
      <g transform="translate(120.958478 242.738437)scale(0.1 -0.1)">
       <use xlink:href="#DejaVuSans-2212"/>
       <use x="83.789062" xlink:href="#DejaVuSans-35"/>
      </g>
     </g>
    </g>
    <g id="xtick_3">
     <g id="line2d_3">
      <g>
       <use style="stroke:#000000;stroke-width:0.8;" x="197.503125" xlink:href="#m6f8ee9c264" y="228.14"/>
      </g>
     </g>
     <g id="text_3">
      <!-- 0 -->
      <g transform="translate(194.321875 242.738437)scale(0.1 -0.1)">
       <use xlink:href="#DejaVuSans-30"/>
      </g>
     </g>
    </g>
    <g id="xtick_4">
     <g id="line2d_4">
      <g>
       <use style="stroke:#000000;stroke-width:0.8;" x="266.676679" xlink:href="#m6f8ee9c264" y="228.14"/>
      </g>
     </g>
     <g id="text_4">
      <!-- 5 -->
      <g transform="translate(263.495429 242.738437)scale(0.1 -0.1)">
       <use xlink:href="#DejaVuSans-35"/>
      </g>
     </g>
    </g>
    <g id="xtick_5">
     <g id="line2d_5">
      <g>
       <use style="stroke:#000000;stroke-width:0.8;" x="335.850232" xlink:href="#m6f8ee9c264" y="228.14"/>
      </g>
     </g>
     <g id="text_5">
      <!-- 10 -->
      <g transform="translate(329.487732 242.738437)scale(0.1 -0.1)">
       <use xlink:href="#DejaVuSans-31"/>
       <use x="63.623047" xlink:href="#DejaVuSans-30"/>
      </g>
     </g>
    </g>
   </g>
   <g id="matplotlib.axis_2">
    <g id="ytick_1">
     <g id="line2d_6">
      <defs>
       <path d="M 0 0 
L -3.5 0 
" id="m70bc2f441f" style="stroke:#000000;stroke-width:0.8;"/>
      </defs>
      <g>
       <use style="stroke:#000000;stroke-width:0.8;" x="30.103125" xlink:href="#m70bc2f441f" y="218.256364"/>
      </g>
     </g>
     <g id="text_6">
      <!-- 0.0 -->
      <defs>
       <path d="M 10.6875 12.40625 
L 21 12.40625 
L 21 0 
L 10.6875 0 
z
" id="DejaVuSans-2e"/>
      </defs>
      <g transform="translate(7.2 222.055582)scale(0.1 -0.1)">
       <use xlink:href="#DejaVuSans-30"/>
       <use x="63.623047" xlink:href="#DejaVuSans-2e"/>
       <use x="95.410156" xlink:href="#DejaVuSans-30"/>
      </g>
     </g>
    </g>
    <g id="ytick_2">
     <g id="line2d_7">
      <g>
       <use style="stroke:#000000;stroke-width:0.8;" x="30.103125" xlink:href="#m70bc2f441f" y="177.502446"/>
      </g>
     </g>
     <g id="text_7">
      <!-- 0.1 -->
      <g transform="translate(7.2 181.301665)scale(0.1 -0.1)">
       <use xlink:href="#DejaVuSans-30"/>
       <use x="63.623047" xlink:href="#DejaVuSans-2e"/>
       <use x="95.410156" xlink:href="#DejaVuSans-31"/>
      </g>
     </g>
    </g>
    <g id="ytick_3">
     <g id="line2d_8">
      <g>
       <use style="stroke:#000000;stroke-width:0.8;" x="30.103125" xlink:href="#m70bc2f441f" y="136.748529"/>
      </g>
     </g>
     <g id="text_8">
      <!-- 0.2 -->
      <defs>
       <path d="M 19.1875 8.296875 
L 53.609375 8.296875 
L 53.609375 0 
L 7.328125 0 
L 7.328125 8.296875 
Q 12.9375 14.109375 22.625 23.890625 
Q 32.328125 33.6875 34.8125 36.53125 
Q 39.546875 41.84375 41.421875 45.53125 
Q 43.3125 49.21875 43.3125 52.78125 
Q 43.3125 58.59375 39.234375 62.25 
Q 35.15625 65.921875 28.609375 65.921875 
Q 23.96875 65.921875 18.8125 64.3125 
Q 13.671875 62.703125 7.8125 59.421875 
L 7.8125 69.390625 
Q 13.765625 71.78125 18.9375 73 
Q 24.125 74.21875 28.421875 74.21875 
Q 39.75 74.21875 46.484375 68.546875 
Q 53.21875 62.890625 53.21875 53.421875 
Q 53.21875 48.921875 51.53125 44.890625 
Q 49.859375 40.875 45.40625 35.40625 
Q 44.1875 33.984375 37.640625 27.21875 
Q 31.109375 20.453125 19.1875 8.296875 
z
" id="DejaVuSans-32"/>
      </defs>
      <g transform="translate(7.2 140.547748)scale(0.1 -0.1)">
       <use xlink:href="#DejaVuSans-30"/>
       <use x="63.623047" xlink:href="#DejaVuSans-2e"/>
       <use x="95.410156" xlink:href="#DejaVuSans-32"/>
      </g>
     </g>
    </g>
    <g id="ytick_4">
     <g id="line2d_9">
      <g>
       <use style="stroke:#000000;stroke-width:0.8;" x="30.103125" xlink:href="#m70bc2f441f" y="95.994612"/>
      </g>
     </g>
     <g id="text_9">
      <!-- 0.3 -->
      <defs>
       <path d="M 40.578125 39.3125 
Q 47.65625 37.796875 51.625 33 
Q 55.609375 28.21875 55.609375 21.1875 
Q 55.609375 10.40625 48.1875 4.484375 
Q 40.765625 -1.421875 27.09375 -1.421875 
Q 22.515625 -1.421875 17.65625 -0.515625 
Q 12.796875 0.390625 7.625 2.203125 
L 7.625 11.71875 
Q 11.71875 9.328125 16.59375 8.109375 
Q 21.484375 6.890625 26.8125 6.890625 
Q 36.078125 6.890625 40.9375 10.546875 
Q 45.796875 14.203125 45.796875 21.1875 
Q 45.796875 27.640625 41.28125 31.265625 
Q 36.765625 34.90625 28.71875 34.90625 
L 20.21875 34.90625 
L 20.21875 43.015625 
L 29.109375 43.015625 
Q 36.375 43.015625 40.234375 45.921875 
Q 44.09375 48.828125 44.09375 54.296875 
Q 44.09375 59.90625 40.109375 62.90625 
Q 36.140625 65.921875 28.71875 65.921875 
Q 24.65625 65.921875 20.015625 65.03125 
Q 15.375 64.15625 9.8125 62.3125 
L 9.8125 71.09375 
Q 15.4375 72.65625 20.34375 73.4375 
Q 25.25 74.21875 29.59375 74.21875 
Q 40.828125 74.21875 47.359375 69.109375 
Q 53.90625 64.015625 53.90625 55.328125 
Q 53.90625 49.265625 50.4375 45.09375 
Q 46.96875 40.921875 40.578125 39.3125 
z
" id="DejaVuSans-33"/>
      </defs>
      <g transform="translate(7.2 99.793831)scale(0.1 -0.1)">
       <use xlink:href="#DejaVuSans-30"/>
       <use x="63.623047" xlink:href="#DejaVuSans-2e"/>
       <use x="95.410156" xlink:href="#DejaVuSans-33"/>
      </g>
     </g>
    </g>
    <g id="ytick_5">
     <g id="line2d_10">
      <g>
       <use style="stroke:#000000;stroke-width:0.8;" x="30.103125" xlink:href="#m70bc2f441f" y="55.240695"/>
      </g>
     </g>
     <g id="text_10">
      <!-- 0.4 -->
      <defs>
       <path d="M 37.796875 64.3125 
L 12.890625 25.390625 
L 37.796875 25.390625 
z
M 35.203125 72.90625 
L 47.609375 72.90625 
L 47.609375 25.390625 
L 58.015625 25.390625 
L 58.015625 17.1875 
L 47.609375 17.1875 
L 47.609375 0 
L 37.796875 0 
L 37.796875 17.1875 
L 4.890625 17.1875 
L 4.890625 26.703125 
z
" id="DejaVuSans-34"/>
      </defs>
      <g transform="translate(7.2 59.039914)scale(0.1 -0.1)">
       <use xlink:href="#DejaVuSans-30"/>
       <use x="63.623047" xlink:href="#DejaVuSans-2e"/>
       <use x="95.410156" xlink:href="#DejaVuSans-34"/>
      </g>
     </g>
    </g>
    <g id="ytick_6">
     <g id="line2d_11">
      <g>
       <use style="stroke:#000000;stroke-width:0.8;" x="30.103125" xlink:href="#m70bc2f441f" y="14.486778"/>
      </g>
     </g>
     <g id="text_11">
      <!-- 0.5 -->
      <g transform="translate(7.2 18.285997)scale(0.1 -0.1)">
       <use xlink:href="#DejaVuSans-30"/>
       <use x="63.623047" xlink:href="#DejaVuSans-2e"/>
       <use x="95.410156" xlink:href="#DejaVuSans-35"/>
      </g>
     </g>
    </g>
   </g>
   <g id="line2d_12">
    <path clip-path="url(#pcbe67478bc)" d="M 45.321307 218.228457 
L 59.086496 218.075983 
L 66.733824 217.799262 
L 72.851686 217.346061 
L 77.440083 216.778506 
L 82.028479 215.922173 
L 85.08741 215.138643 
L 88.146341 214.142686 
L 91.205272 212.894505 
L 94.264203 211.352494 
L 97.323134 209.475001 
L 100.382065 207.222608 
L 103.440996 204.560896 
L 106.499927 201.463588 
L 109.558858 197.915929 
L 112.617789 193.918071 
L 115.67672 189.488198 
L 118.735651 184.665089 
L 123.324048 176.832892 
L 137.089237 152.379644 
L 140.148168 147.623617 
L 143.207099 143.420081 
L 144.736565 141.560865 
L 146.26603 139.877162 
L 147.795496 138.374922 
L 149.324961 137.055564 
L 150.854427 135.915027 
L 152.383892 134.942753 
L 155.442823 133.421868 
L 161.560686 130.975952 
L 163.090151 130.137312 
L 164.619617 129.046731 
L 166.149082 127.610082 
L 167.678548 125.730031 
L 169.208013 123.310443 
L 170.737479 120.261815 
L 172.266944 116.507571 
L 173.79641 111.990932 
L 175.325875 106.681967 
L 176.855341 100.584309 
L 178.384806 93.740938 
L 181.443737 78.208907 
L 187.561599 44.94061 
L 189.091065 37.639954 
L 190.62053 31.315424 
L 192.149996 26.236347 
L 193.679461 22.63878 
L 195.208927 20.71138 
L 196.738392 20.583636 
L 198.267858 22.317424 
L 199.797323 25.902594 
L 201.326789 31.256963 
L 202.856254 38.230705 
L 204.38572 46.614787 
L 205.915185 56.152734 
L 208.974116 77.513325 
L 213.562513 110.702116 
L 215.091978 120.970005 
L 216.621444 130.479959 
L 218.150909 139.081815 
L 219.680375 146.672068 
L 221.20984 153.192056 
L 222.739306 158.623981 
L 224.268771 162.985383 
L 225.798237 166.322678 
L 227.327702 168.704355 
L 228.857168 170.214343 
L 230.386633 170.94593 
L 231.916099 170.996518 
L 233.445564 170.463365 
L 234.97503 169.440351 
L 236.504495 168.015727 
L 238.033961 166.270747 
L 241.092892 162.106434 
L 245.681289 155.055182 
L 250.269685 148.112949 
L 253.328616 143.986163 
L 254.858082 142.149138 
L 256.387547 140.490448 
L 257.917013 139.027627 
L 259.446478 137.775867 
L 260.975944 136.748028 
L 262.505409 135.954627 
L 264.034875 135.403805 
L 265.56434 135.1013 
L 267.093806 135.050427 
L 268.623271 135.252076 
L 270.152737 135.704732 
L 271.682202 136.404525 
L 273.211668 137.345307 
L 274.741133 138.518754 
L 276.270599 139.914507 
L 277.800064 141.520331 
L 279.32953 143.322297 
L 282.388461 147.451755 
L 285.447392 152.165894 
L 288.506323 157.315281 
L 293.094719 165.519172 
L 300.742047 179.268894 
L 303.800978 184.43743 
L 306.859909 189.277124 
L 309.91884 193.725873 
L 312.977771 197.743908 
L 316.036702 201.312159 
L 319.095633 204.429718 
L 322.154564 207.110735 
L 325.213495 209.381036 
L 328.272426 211.274741 
L 331.331357 212.831106 
L 334.390288 214.091733 
L 337.449219 215.098272 
L 340.50815 215.890634 
L 343.567081 216.505721 
L 348.155478 217.167198 
L 349.684943 217.332222 
L 349.684943 217.332222 
" style="fill:none;stroke:#1f77b4;stroke-linecap:square;stroke-width:1.5;"/>
   </g>
   <g id="line2d_13">
    <path clip-path="url(#pcbe67478bc)" d="M 73.243416 218.256364 
L 73.243416 217.306593 
" style="fill:none;stroke:#000000;stroke-linecap:square;stroke-width:1.5;"/>
   </g>
   <g id="line2d_14">
    <path clip-path="url(#pcbe67478bc)" d="M 140.672339 218.256364 
L 140.672339 146.860644 
" style="fill:none;stroke:#000000;stroke-linecap:square;stroke-width:1.5;"/>
   </g>
   <g id="line2d_15">
    <path clip-path="url(#pcbe67478bc)" d="M 161.318449 218.256364 
L 161.318449 131.091558 
" style="fill:none;stroke:#000000;stroke-linecap:square;stroke-width:1.5;"/>
   </g>
   <g id="line2d_16">
    <path clip-path="url(#pcbe67478bc)" d="M 179.028139 218.256364 
L 179.028139 90.658919 
" style="fill:none;stroke:#000000;stroke-linecap:square;stroke-width:1.5;"/>
   </g>
   <g id="line2d_17">
    <path clip-path="url(#pcbe67478bc)" d="M 190.098824 218.256364 
L 190.098824 33.345769 
" style="fill:none;stroke:#000000;stroke-linecap:square;stroke-width:1.5;"/>
   </g>
   <g id="line2d_18">
    <path clip-path="url(#pcbe67478bc)" d="M 199.119584 218.256364 
L 199.119584 24.08913 
" style="fill:none;stroke:#000000;stroke-linecap:square;stroke-width:1.5;"/>
   </g>
   <g id="line2d_19">
    <path clip-path="url(#pcbe67478bc)" d="M 208.355911 218.256364 
L 208.355911 73.036885 
" style="fill:none;stroke:#000000;stroke-linecap:square;stroke-width:1.5;"/>
   </g>
   <g id="line2d_20">
    <path clip-path="url(#pcbe67478bc)" d="M 228.907879 218.256364 
L 228.907879 170.250544 
" style="fill:none;stroke:#000000;stroke-linecap:square;stroke-width:1.5;"/>
   </g>
   <g id="line2d_21">
    <path clip-path="url(#pcbe67478bc)" d="M 258.808446 218.256364 
L 258.808446 138.271515 
" style="fill:none;stroke:#000000;stroke-linecap:square;stroke-width:1.5;"/>
   </g>
   <g id="line2d_22">
    <path clip-path="url(#pcbe67478bc)" d="M 280.208169 218.256364 
L 280.208169 144.440261 
" style="fill:none;stroke:#000000;stroke-linecap:square;stroke-width:1.5;"/>
   </g>
   <g id="line2d_23">
    <path clip-path="url(#pcbe67478bc)" d="M 344.950042 218.256364 
L 344.950042 216.734645 
" style="fill:none;stroke:#000000;stroke-linecap:square;stroke-width:1.5;"/>
   </g>
   <g id="line2d_24">
    <defs>
     <path d="M 0 3 
C 0.795609 3 1.55874 2.683901 2.12132 2.12132 
C 2.683901 1.55874 3 0.795609 3 0 
C 3 -0.795609 2.683901 -1.55874 2.12132 -2.12132 
C 1.55874 -2.683901 0.795609 -3 0 -3 
C -0.795609 -3 -1.55874 -2.683901 -2.12132 -2.12132 
C -2.683901 -1.55874 -3 -0.795609 -3 0 
C -3 0.795609 -2.683901 1.55874 -2.12132 2.12132 
C -1.55874 2.683901 -0.795609 3 0 3 
z
" id="m97340a5f50" style="stroke:#ff0000;"/>
    </defs>
    <g clip-path="url(#pcbe67478bc)">
     <use style="fill:#ff0000;stroke:#ff0000;" x="127.131277" xlink:href="#m97340a5f50" y="218.256364"/>
     <use style="fill:#ff0000;stroke:#ff0000;" x="151.824683" xlink:href="#m97340a5f50" y="218.256364"/>
     <use style="fill:#ff0000;stroke:#ff0000;" x="170.44743" xlink:href="#m97340a5f50" y="218.256364"/>
     <use style="fill:#ff0000;stroke:#ff0000;" x="185.141759" xlink:href="#m97340a5f50" y="218.256364"/>
     <use style="fill:#ff0000;stroke:#ff0000;" x="194.64189" xlink:href="#m97340a5f50" y="218.256364"/>
     <use style="fill:#ff0000;stroke:#ff0000;" x="203.440854" xlink:href="#m97340a5f50" y="218.256364"/>
     <use style="fill:#ff0000;stroke:#ff0000;" x="215.506758" xlink:href="#m97340a5f50" y="218.256364"/>
     <use style="fill:#ff0000;stroke:#ff0000;" x="246.273087" xlink:href="#m97340a5f50" y="218.256364"/>
     <use style="fill:#ff0000;stroke:#ff0000;" x="269.604471" xlink:href="#m97340a5f50" y="218.256364"/>
     <use style="fill:#ff0000;stroke:#ff0000;" x="294.854214" xlink:href="#m97340a5f50" y="218.256364"/>
    </g>
   </g>
   <g id="patch_3">
    <path d="M 30.103125 228.14 
L 30.103125 10.7 
" style="fill:none;stroke:#000000;stroke-linecap:square;stroke-linejoin:miter;stroke-width:0.8;"/>
   </g>
   <g id="patch_4">
    <path d="M 364.903125 228.14 
L 364.903125 10.7 
" style="fill:none;stroke:#000000;stroke-linecap:square;stroke-linejoin:miter;stroke-width:0.8;"/>
   </g>
   <g id="patch_5">
    <path d="M 30.103125 228.14 
L 364.903125 228.14 
" style="fill:none;stroke:#000000;stroke-linecap:square;stroke-linejoin:miter;stroke-width:0.8;"/>
   </g>
   <g id="patch_6">
    <path d="M 30.103125 10.7 
L 364.903125 10.7 
" style="fill:none;stroke:#000000;stroke-linecap:square;stroke-linejoin:miter;stroke-width:0.8;"/>
   </g>
  </g>
 </g>
 <defs>
  <clipPath id="pcbe67478bc">
   <rect height="217.44" width="334.8" x="30.103125" y="10.7"/>
  </clipPath>
 </defs>
</svg>
